<?xml version="1.0" encoding="UTF-8" standalone="no"?>
<svg
   viewBox="0 0 199.99913 89.916"
   version="1.1"
   id="svg10030"
   sodipodi:docname="logo.svg"
   width="150"
   height="67"
   preserveAspectRatio="none"
   inkscape:version="1.2.1 (9c6d41e410, 2022-07-14)"
   xmlns:inkscape="http://www.inkscape.org/namespaces/inkscape"
   xmlns:sodipodi="http://sodipodi.sourceforge.net/DTD/sodipodi-0.dtd"
   xmlns="http://www.w3.org/2000/svg"
   xmlns:svg="http://www.w3.org/2000/svg">
  <defs
     id="defs10034" />
  <sodipodi:namedview
     id="namedview10032"
     pagecolor="#ffffff"
     bordercolor="#666666"
     borderopacity="1.0"
     inkscape:showpageshadow="2"
     inkscape:pageopacity="0.0"
     inkscape:pagecheckerboard="0"
     inkscape:deskcolor="#d1d1d1"
     showgrid="false"
     inkscape:zoom="6.0285714"
     inkscape:cx="80.947867"
     inkscape:cy="48.850711"
     inkscape:window-width="1916"
     inkscape:window-height="1041"
     inkscape:window-x="1920"
     inkscape:window-y="669"
     inkscape:window-maximized="1"
     inkscape:current-layer="svg10030" />
  <g
     id="g10038"
     transform="translate(-5,-4.774)"
     style="fill:#ff5f00">
    <path
       d="m 118.895,20.346 c 0,0 -13.743,16.922 -13.04,18.001 0.975,-1.079 -4.934,-18.186 -4.934,-18.186 0,0 -1.233,-3.597 -5.102,-15.387 H 81.81 47.812 22.175 l -2.56,11.068 h 19.299 4.579 c 12.415,0 19.995,5.132 17.878,14.225 -2.287,9.901 -13.123,14.128 -24.665,14.128 H 32.39 L 37.942,19.987 H 18.647 l -8.192,35.368 h 27.398 c 20.612,0 40.166,-11.067 43.692,-25.288 0.617,-2.614 0.53,-9.185 -1.054,-13.053 0,-0.093 -0.091,-0.271 -0.178,-0.537 -0.087,-0.093 -0.178,-0.722 0.178,-0.814 0.172,-0.092 0.525,0.271 0.525,0.358 0,0 0.179,0.456 0.351,0.813 l 17.44,50.315 44.404,-51.216 18.761,-0.092 h 4.579 c 12.424,0 20.09,5.132 17.969,14.225 -2.29,9.901 -13.205,14.128 -24.75,14.128 h -4.405 L 161,19.987 h -19.287 l -8.198,35.368 h 27.398 c 20.611,0 40.343,-11.067 43.604,-25.288 3.347,-14.225 -11.101,-25.293 -31.89,-25.293 h -18.143 -22.727 c -10.834,13.049 -12.862,15.572 -12.862,15.572 z"
       id="path10026"
       style="fill:#ff5f00" />
    <path
       d="M 99.424,67.329 C 47.281,67.329 5,73.449 5,81.012 5,88.57 47.281,94.69 99.424,94.69 c 52.239,0 94.524,-6.12 94.524,-13.678 0.001,-7.563 -42.284,-13.683 -94.524,-13.683 z m -3.346,18.544 c -11.98,0 -21.58,-2.072 -21.58,-4.595 0,-2.523 9.599,-4.59 21.58,-4.59 11.888,0 21.498,2.066 21.498,4.59 0,2.523 -9.61,4.595 -21.498,4.595 z"
       id="path10028"
       style="fill:#ff5f00" />
  </g>
</svg>
